{"title":"Dungeons &amp; Dragons 3 The Book of Vile Darkness 2012 Hindi Mo","uid":8838808,"size":1206509391,"categoryP":"video","categoryS":"hd___movies","magnet":"?xt=urn:btih:0d37eded18675eff0d7cf9fd177b07449d8ffcfb&amp;dn=Dungeons+%26amp%3B+Dragons+3+The+Book+of+Vile+Darkness+2012+Hindi+Mo&amp;tr=udp%3A%2F%2Ftracker.openbittorrent.com%3A80&amp;tr=udp%3A%2F%2Fopen.demonii.com%3A1337&amp;tr=udp%3A%2F%2Ftracker.coppersurfer.tk%3A6969&amp;tr=udp%3A%2F%2Fexodus.desync.com%3A6969","seeders":2,"leechers":0,"uploader":"basicssom","files":3,"time":1377194262,"description":" &lt;a href=&quot;http://users2.jabry.com/myimghost/logo.jpg&quot; rel=&quot;nofollow&quot; target=&quot;_NEW&quot;&gt;http://users2.jabry.com/myimghost/logo.jpg&lt;/a&gt;\n\nDungeons &amp; Dragons 3 The Book of Vile Darkness 2012 Hindi Movies 720p HDBRRip x264 Dual Audio 5.1 ~â˜»rDXâ˜»\n\nScreen Shots :\n &lt;a href=&quot;\nhttp://myimghosting.serveftp.com/13/DungeonsDragons.html&quot; rel=&quot;nofollow&quot; target=&quot;_NEW&quot;&gt;\nhttp://myimghosting.serveftp.com/13/DungeonsDragons.html&lt;/a&gt;\n &lt;a href=&quot;\nhttp://myimghost.cwahi.net/DungeonsDragons.html&quot; rel=&quot;nofollow&quot; target=&quot;_NEW&quot;&gt;\nhttp://myimghost.cwahi.net/DungeonsDragons.html&lt;/a&gt;\n &lt;a href=&quot;\nhttp://users2.jabry.com/myimghost/DungeonsDragons/DungeonsDragons.jpg&quot; rel=&quot;nofollow&quot; target=&quot;_NEW&quot;&gt;\nhttp://users2.jabry.com/myimghost/DungeonsDragons/DungeonsDragons.jpg&lt;/a&gt;\n &lt;a href=&quot;\nhttp://users2.jabry.com/myimghost/DungeonsDragons/DungeonsDragons1.jpg&quot; rel=&quot;nofollow&quot; target=&quot;_NEW&quot;&gt;\nhttp://users2.jabry.com/myimghost/DungeonsDragons/DungeonsDragons1.jpg&lt;/a&gt;\n &lt;a href=&quot;\nhttp://users2.jabry.com/myimghost/DungeonsDragons/DungeonsDragons2.jpg&quot; rel=&quot;nofollow&quot; target=&quot;_NEW&quot;&gt;\nhttp://users2.jabry.com/myimghost/DungeonsDragons/DungeonsDragons2.jpg&lt;/a&gt;\n\nFormat                                   : Matroska\nFormat version                           : Version 4 / Version 2\nFile size                                : 1.08 GiB\nDuration                                 : 1h 30mn\nOverall bit rate                         : 1 717 Kbps\nMovie name                               : Dungeons &amp; Dragons 3 The Book of Vile Darkness 2012 Hindi Movies 720p HDBRRip x264 Dual Audio 5.1 ~â˜»rDXâ˜»\nEncoded date                             : UTC 2013-08-21 12:55:35\nWriting application                      : mkvmerge v6.1.0 ('Old Devil') built on Mar  2 2013 \n\n14:32:37\nWriting library                          : libebml v1.3.0 + libmatroska v1.4.0\n\nVideo\nID                                       : 1\nFormat                                   : AVC\nFormat/Info                              : Advanced Video Codec\nFormat profile                           : &lt;a class=&quot;__cf_email__&quot; href=&quot;/cdn-cgi/l/email-protection&quot; data-cfemail=&quot;d39bbab4bb939fe7fde2&quot;&gt;[email&amp;#160;protected]&lt;/a&gt;&lt;script cf-hash='f9e31' type=&quot;text/javascript&quot;&gt;\n/* &lt;![CDATA[ */!function(){try{var t=&quot;currentScript&quot;in document?document.currentScript:function(){for(var t=document.getElementsByTagName(&quot;script&quot;),e=t.length;e--;)if(t[e].getAttribute(&quot;cf-hash&quot;))return t[e]}();if(t&amp;&amp;t.previousSibling){var e,r,n,i,c=t.previousSibling,a=c.getAttribute(&quot;data-cfemail&quot;);if(a){for(e=&quot;&quot;,r=parseInt(a.substr(0,2),16),n=2;a.length-n;n+=2)i=parseInt(a.substr(n,2),16)^r,e+=String.fromCharCode(i);e=document.createTextNode(e),c.parentNode.replaceChild(e,c)}}}catch(u){}}();/* ]]&gt; */&lt;/script&gt;\nFormat settings, CABAC                   : Yes\nFormat settings, ReFrames                : 3 frames\nCodec ID                                 : V_MPEG4/ISO/AVC\nDuration                                 : 1h 30mn\nBit rate                                 : 1 462 Kbps\nWidth                                    : 1 280 pixels\nHeight                                   : 720 pixels\nDisplay aspect ratio                     : 16:9\nFrame rate mode                          : Constant\nFrame rate                               : 23.976 fps\nColor space                              : YUV\nChroma subsampling                       : 4:2:0\nBit depth                                : 8 bits\nScan type                                : Progressive\nBits/(Pixel*Frame)                       : 0.066\nStream size                              : 919 MiB (83%)\nTitle                                    : Mafiaking\nWriting library                          : x264 core 115 r1995 c1e60b9\nLanguage                                 : English\nDefault                                  : Yes\nForced                                   : No\n\nAudio #1\nID                                       : 2\nFormat                                   : AC-3\nFormat/Info                              : Audio Coding 3\nMode extension                           : CM (complete main)\nFormat settings, Endianness              : Big\nCodec ID                                 : A_AC3\nDuration                                 : 1h 30mn\nBit rate mode                            : Constant\nBit rate                                 : 128 Kbps\nChannel(s)                               : 6 channels\nChannel positions                        : Front: L C R, Side: L R, LFE\nSampling rate                            : 48.0 KHz\nBit depth                                : 16 bits\nCompression mode                         : Lossy\nDelay relative to video                  : 12ms\nStream size                              : 82.4 MiB (7%)\nTitle                                    : Mafiaking\nLanguage                                 : Hindi\nDefault                                  : Yes\nForced                                   : No\n\nAudio #2\nID                                       : 3\nFormat                                   : AC-3\nFormat/Info                              : Audio Coding 3\nMode extension                           : CM (complete main)\nFormat settings, Endianness              : Big\nCodec ID                                 : A_AC3\nDuration                                 : 1h 30mn\nBit rate mode                            : Constant\nBit rate                                 : 128 Kbps\nChannel(s)                               : 6 channels\nChannel positions                        : Front: L C R, Side: L R, LFE\nSampling rate                            : 48.0 KHz\nBit depth                                : 16 bits\nCompression mode                         : Lossy\nStream size                              : 82.4 MiB (7%)\nTitle                                    : Mafiaking\nLanguage                                 : English\nDefault                                  : No\nForced                                   : No","torrent":{"xt":"urn:btih:0d37eded18675eff0d7cf9fd177b07449d8ffcfb","amp;dn":"Dungeons+%26amp%3B+Dragons+3+The+Book+of+Vile+Darkness+2012+Hindi+Mo","amp;tr":["udp%3A%2F%2Ftracker.openbittorrent.com%3A80","udp%3A%2F%2Fopen.demonii.com%3A1337","udp%3A%2F%2Ftracker.coppersurfer.tk%3A6969","udp%3A%2F%2Fexodus.desync.com%3A6969"],"infoHash":"0d37eded18675eff0d7cf9fd177b07449d8ffcfb","infoHashBuffer":{"type":"Buffer","data":[13,55,237,237,24,103,94,255,13,124,249,253,23,123,7,68,157,143,252,251]},"announce":[],"urlList":[]}}